<svg width="95" height="30" viewBox="0 0 95 30" xmlns="http://www.w3.org/2000/svg"><title>Page 1</title><path d="M25.476 23.88a4.386 4.386 0 0 1-2.686 3.453c-.708.296-1.476.384-2.243.296a5.818 5.818 0 0 1-2.243-.77c-1.064-.59-2.124-1.51-3.364-2.86 1.947-2.39 3.127-4.58 3.57-6.53a7.404 7.404 0 0 0 .148-2.51 4.794 4.794 0 0 0-.798-2.01c-.915-1.33-2.45-2.1-4.16-2.1-1.713 0-3.248.8-4.163 2.09a4.8 4.8 0 0 0-.798 2 6.145 6.145 0 0 0 .14 2.51c.44 1.95 1.65 4.16 3.57 6.55-1.21 1.35-2.31 2.27-3.37 2.86a5.815 5.815 0 0 1-2.25.77 4.723 4.723 0 0 1-2.24-.29 4.39 4.39 0 0 1-2.69-3.45 4.89 4.89 0 0 1 .27-2.31c.08-.3.23-.59.38-.95.2-.47.44-.97.68-1.48l.03-.06a323.83 323.83 0 0 1 6.5-13.24l.09-.18c.23-.45.47-.92.71-1.36a6.56 6.56 0 0 1 .82-1.3c.62-.7 1.45-1.09 2.36-1.09s1.74.39 2.36 1.09c.32.39.59.83.83 1.3.24.45.48.92.71 1.36l.09.18a391.48 391.48 0 0 1 6.46 13.29v.03c.23.47.44 1 .68 1.47.14.35.29.65.38.94.23.77.32 1.51.2 2.27zM13.7 22.492c-1.595-2.007-2.628-3.896-2.983-5.49-.148-.68-.177-1.27-.088-1.8a2.87 2.87 0 0 1 .47-1.24c.56-.797 1.5-1.3 2.6-1.3 1.09 0 2.06.473 2.59 1.3.23.354.41.768.47 1.24.08.53.06 1.15-.09 1.8-.36 1.564-1.39 3.453-2.98 5.49zm13.31-1.535c-.146-.354-.294-.737-.442-1.062-.236-.53-.472-1.034-.678-1.505l-.03-.03a307.88 307.88 0 0 0-6.524-13.342l-.088-.177a60.993 60.993 0 0 1-.71-1.38c-.294-.53-.588-1.09-1.06-1.62C16.53.65 15.173 0 13.728 0c-1.477 0-2.805.65-3.78 1.77-.442.532-.767 1.093-1.062 1.625-.236.472-.473.945-.708 1.387l-.09.177c-2.27 4.42-4.484 8.91-6.52 13.34l-.03.06c-.207.47-.443.97-.68 1.5-.15.32-.295.68-.443 1.06-.385 1.09-.502 2.13-.355 3.19a6.273 6.273 0 0 0 3.84 4.9 6.056 6.056 0 0 0 2.39.47c.236 0 .53-.03.767-.06a7.802 7.802 0 0 0 2.952-1.01c1.21-.68 2.36-1.66 3.66-3.07 1.29 1.41 2.48 2.39 3.66 3.07a7.802 7.802 0 0 0 3.72 1.06c.82 0 1.65-.15 2.39-.48 2.06-.82 3.51-2.71 3.83-4.9.23-1.03.11-2.06-.27-3.16zm29.43-10.39c.856 0 1.3.148 1.3.148v2.627s-2.362-.797-3.84.885v7.763h-2.83V10.862h2.39c.236 0 .414.207.414.413v.473c.532-.62 1.682-1.18 2.568-1.18zm7.675 9.003c-1.092 0-1.95-.56-2.39-1.21v-3.955c.44-.59 1.386-1.21 2.39-1.21 1.89 0 3.335 1.18 3.335 3.187 0 2.008-1.446 3.188-3.335 3.188zm.472-9.003c-1.948 0-2.863 1.18-2.863 1.18V5.52H58.89v16.44h2.39a.422.422 0 0 0 .414-.412v-.502s.915 1.21 2.864 1.21c3.216 0 5.726-2.48 5.726-5.844.03-3.365-2.48-5.845-5.697-5.845zM81.62 15.38v6.61h-2.836v-6.287c0-1.83-.59-2.568-2.184-2.568-.855 0-1.74.443-2.302 1.092v7.734h-2.834V10.87h2.244c.236 0 .413.207.413.413v.473c.83-.856 1.92-1.18 3.02-1.18 1.24 0 2.27.353 3.1 1.06 1 .828 1.39 1.89 1.39 3.75zm6.7 4.19c-1.093 0-1.95-.56-2.392-1.21v-3.955c.442-.59 1.387-1.21 2.392-1.21 1.888 0 3.335 1.18 3.335 3.187 0 2.008-1.447 3.188-3.335 3.188zm.47-9.003c-1.947 0-2.862 1.18-2.862 1.18V5.52h-2.834v16.44h2.39a.422.422 0 0 0 .415-.412v-.502s.91 1.21 2.86 1.21c3.22 0 5.72-2.48 5.72-5.844 0-3.365-2.51-5.845-5.7-5.845zM46.464 21.96h2.833V10.862h-2.833V21.96zm-4.575-3.57c-.45.65-1.33 1.21-2.39 1.21-1.89 0-3.34-1.18-3.34-3.188 0-2.007 1.44-3.188 3.33-3.188 1.03 0 1.97.59 2.39 1.21v3.956zm0-7.115v.473s-.92-1.18-2.87-1.18c-3.22 0-5.73 2.45-5.73 5.844 0 3.365 2.47 5.844 5.72 5.844 1.98 0 2.86-1.21 2.86-1.21v.502a.4.4 0 0 0 .41.413h2.39V10.87H42.3a.422.422 0 0 0-.413.413zM49.8 7.41a1.914 1.914 0 0 1-1.92 1.916 1.915 1.915 0 0 1-1.92-1.918 1.9 1.9 0 0 1 1.92-1.92c1.093.03 1.92.886 1.92 1.92z" fill="#FFF" fill-rule="evenodd"/></svg>