<svg width="30" height="24" viewBox="0 0 30 24" xmlns="http://www.w3.org/2000/svg"><title>twitter</title><path d="M9.435 24C5.96 24 2.725 22.997 0 21.278c.482.056.97.085 1.468.085 2.884 0 5.538-.97 7.644-2.594-2.693-.05-4.966-1.81-5.75-4.21a6.24 6.24 0 0 0 2.78-.11c-2.816-.56-4.937-3.01-4.937-5.94v-.07a6.2 6.2 0 0 0 2.788.75 6.026 6.026 0 0 1-2.738-5.04c0-1.11.304-2.15.833-3.05a17.567 17.567 0 0 0 12.687 6.33 5.992 5.992 0 0 1-.16-1.38C14.615 2.71 17.37 0 20.77 0c1.77 0 3.37.736 4.493 1.913A12.445 12.445 0 0 0 29.17.443a6.095 6.095 0 0 1-2.705 3.352A12.46 12.46 0 0 0 30 2.84a12.403 12.403 0 0 1-3.07 3.137c.01.26.017.522.017.784 0 8.01-6.19 17.24-17.512 17.24" fill="#FEFEFE" fill-rule="evenodd"/></svg>