<svg width="99" height="30" viewBox="0 0 99 30" xmlns="http://www.w3.org/2000/svg"><title>Eventbrite Logo</title><path d="M85.29 13.777c-1.31 0-2.39.9-2.903 2.083.46.035.868.053 1.24.053 2.408 0 3.08-.547 3.08-1.218 0-.46-.478-.918-1.416-.918zm-29.305.3c-.92 0-1.753.547-2.284 1.342l-.26 1.23c-.26 1.37.48 2.52 1.95 2.52 1.58 0 2.45-1.52 2.45-3.07 0-1.26-.79-2.03-1.84-2.03zm27.853 3.372c-.53 0-1.115-.04-1.77-.08v.05c0 1.2.743 1.94 2.107 1.94 1.15 0 1.984-.51 2.55-1.25.035-.06 1.063.12 1.063.93 0 .45-.142.7-.478 1.06-.656.63-1.683 1.02-3.17 1.02-2.834 0-4.18-1.55-4.18-3.67 0-3.13 2.41-5.37 5.437-5.37 2.196 0 3.418 1.02 3.418 2.52 0 1.76-1.133 2.82-4.977 2.82zm-5.082-3.2h-1.612l-.76 3.53c-.232 1.04.123 1.48.813 1.48.443 0 .833-.23 1.062-.44.07-.06.4.23.4.76 0 .37-.14.69-.43.97-.39.39-1.01.6-1.84.6-1.99 0-2.89-1.18-2.45-3.27l.76-3.64h-.43c-.57 0-.91-.25-.91-.66 0-.25.1-.78.35-1.04.17-.16.37-.25.86-.25h.51l.11-.49c.25-1.28.76-1.8 1.86-1.8.53 0 .94.21.92.3l-.42 1.99H79c.6 0 .937.26.937.65 0 .24-.105.79-.37 1.04-.16.16-.37.25-.85.25zm-7.02-3.26c-.886 0-1.382-.44-1.382-1.08 0-.85.584-1.45 1.452-1.45.886 0 1.38.44 1.38 1.07 0 .83-.583 1.45-1.45 1.45zm.432 2.44l-1.15 5.35c-.197.95-.037 1.32.69 1.43.017.01-.125.88-1.453.88-1.612 0-2.02-.99-1.718-2.38l1.133-5.28c.196-.9.514-1.2 1.15-1.2h.267c.673 0 1.275.26 1.08 1.2zm-4.87 1.45c-.25-.27-.603-.52-1.205-.52-1.116 0-1.824 1.23-2.214 3.05l-.5 2.38c-.2.88-.51 1.18-1.15 1.18h-.27c-.68 0-1.28-.27-1.08-1.19l1.57-7.41c.01-.05.3-.16.69-.16.71 0 1.4.38 1.38 1.51.53-1.04 1.32-1.66 2.33-1.66.86 0 1.54.49 1.54 1.22 0 1.22-1.08 1.6-1.12 1.57zm-11.56 6.24c-1.276 0-2.392-.62-2.923-1.68-.336 1.11-.885 1.53-1.86 1.53-.477 0-.885-.22-.867-.3l2.33-11.01c.195-.9.514-1.2 1.152-1.2h.283c.655 0 1.275.28 1.062 1.2l-.807 3.84c.638-.88 1.558-1.43 2.745-1.43 1.86 0 3.4 1.32 3.4 3.69 0 2.72-1.788 5.35-4.516 5.35zm-6.572-6.89h-1.61l-.762 3.53c-.23 1.04.124 1.48.814 1.48.443 0 .832-.23 1.063-.44.07-.06.41.23.41.76 0 .37-.14.68-.42.97-.39.39-1.01.6-1.84.6-1.98 0-2.88-1.19-2.44-3.27l.76-3.64h-.42c-.56 0-.9-.25-.9-.66 0-.25.11-.78.36-1.04.18-.16.37-.25.87-.25h.51l.11-.49c.25-1.28.76-1.81 1.86-1.81.54 0 .94.21.93.3l-.42 1.99h1.46c.61 0 .94.26.94.65 0 .24-.1.79-.37 1.04-.16.16-.37.25-.85.25zm-6.89 5.82c.037 0-.14 1.02-1.504 1.02-1.17 0-1.718-.6-1.718-1.54 0-.5.16-1.15.425-2.12.23-.82.39-1.49.39-1.86 0-.89-.5-1.41-1.4-1.41-.87 0-1.44.4-1.99 1.25l-.92 4.37c-.2.88-.52 1.18-1.15 1.18h-.27c-.68 0-1.28-.27-1.08-1.18l1.57-7.41c.01-.06.3-.16.69-.16.71 0 1.4.39 1.38 1.53.69-1.04 1.7-1.68 2.97-1.68 1.77 0 2.8 1.15 2.8 2.79 0 .62-.22 1.46-.52 2.52-.23.86-.41 1.55-.41 1.9 0 .49.23.68.71.75zm-14.54-2.63c-.53 0-1.114-.03-1.77-.07v.05c0 1.2.744 1.94 2.108 1.94 1.15 0 1.983-.51 2.55-1.25.035-.06 1.062.12 1.062.93 0 .46-.14.71-.478 1.06-.655.63-1.682 1.02-3.17 1.02-2.833 0-4.18-1.56-4.18-3.67 0-3.13 2.41-5.37 5.438-5.37 2.195 0 3.417 1.02 3.417 2.52 0 1.76-1.133 2.82-4.976 2.82zM23 14.68l-3.65 5.59c-.407.636-1.08.742-1.558.742-.638 0-1.293-.23-1.38-.918l-.71-4.906c-.177-1.342-.4-1.868-1.11-1.92-.035 0 .275-1.1 1.376-1.1.53 0 .903.142 1.24.478.478.476.69 1.253.78 2.435l.317 3.22 3.505-6.1c.02-.03 1.72.05 1.72 1.22 0 .39-.14.69-.53 1.27zm-10.823-1.162c.673 0 1.027.283 1.027.723 0 .27-.123.85-.39 1.13-.177.18-.407.28-.938.28h-3.78l-.626 3.02h5.17c.73 0 1.1.29 1.1.76 0 .3-.14.92-.425 1.22-.194.2-.443.28-1.01.28h-6.25c-1.08 0-1.56-.55-1.31-1.66L6.74 9.82c.194-.917.76-1.34 1.63-1.34h6.32c.727 0 1.116.282 1.116.775 0 .28-.16.915-.443 1.2-.194.21-.425.28-1.01.28H9.165l-.61 2.786h3.62zm77.81-9.948L3.605.14C1.808.14 0 1.964 0 3.73l.002 22.666C.002 28.198 1.822 30 3.618 30l86.367-3.426c1.935-.08 3.508-1.64 3.508-3.482V7.05c0-1.843-1.573-3.405-3.508-3.482zM29.19 13.778c-1.31 0-2.39.9-2.905 2.082.46.035.868.053 1.24.053 2.408 0 3.08-.547 3.08-1.218 0-.46-.477-.918-1.416-.918zm67.6-8.4h.445c.263 0 .408-.122.408-.317 0-.21-.15-.31-.424-.31h-.43v.64zm.736.89l-.492-.612h-.24v.58c0 .093-.05.155-.144.155h-.045c-.095 0-.145-.06-.145-.17V4.65c0-.117.072-.19.178-.19h.592c.48 0 .748.195.748.595 0 .334-.212.546-.58.58l.54.617c.018.022-.06.14-.184.14a.296.296 0 0 1-.228-.124zm1.167-.834c0-.918-.66-1.603-1.54-1.603-.9 0-1.525.66-1.525 1.6 0 .92.658 1.6 1.54 1.6.9 0 1.525-.65 1.525-1.59zm-3.366.005c0-1.08.787-1.88 1.836-1.88 1.072 0 1.83.77 1.83 1.86 0 1.07-.786 1.87-1.836 1.87-1.07 0-1.83-.78-1.83-1.86z" fill="#FFF" fill-rule="evenodd"/></svg>