<svg width="78" height="21" viewBox="0 0 78 21" xmlns="http://www.w3.org/2000/svg"><title>netflix</title><path d="M10.634 0H7.37c-.007 4.434-.014 7.306-.02 11.74C5.947 7.414 4.543 4.55 3.135 0H0v20.788c1.058-.15 2.19-.295 3.25-.433l.01-11.36c1.458 4.276 2.354 6.8 3.808 10.863 1.14-.13 2.39-.29 3.532-.406.01-6.484.023-12.968.034-19.452M22.83 0h-9.046l-.036 19.178c3.025-.274 6.054-.5 9.085-.674l.005-3.212c-1.97.12-3.856.247-5.82.38l.01-4.86c1.435-.025 2.95-.003 4.418-.028 0-.94.003-2.288.005-3.228-1.45.026-2.98.03-4.41.056l.01-4.38a221.19 221.19 0 0 1 3.13-.012h.46c.74 0 1.47 0 2.22-.008.01-.935-.02-2.277-.02-3.212m12.19.014H24.95c-.003.93-.004 2.267-.006 3.195l.434-.01c.437 0 .875 0 1.312.01h1.648l-.02 15.01a274.9 274.9 0 0 1 3.272-.1l.014-14.93 3.415-.01V.01M46.22 0h-9.08l-.004 18.052a260.5 260.5 0 0 1 3.236.006c0-2.553 0-4.884-.002-7.438a178.783 178.783 0 0 0 1.822-.002c.43-.002.863-.004 1.292-.004.442 0 .88.002 1.308.008L44.79 7.43a100.51 100.51 0 0 0-1.235-.006c-.447 0-.9 0-1.348.003l-1.337.003h-.5c-.002-1.642-.002-2.57-.002-4.21a701.104 701.104 0 0 0 2.134 0h1.08c.878 0 1.756 0 2.642.004L46.22 0m2.12.015c.01 6.075-.02 12.15-.013 18.226 2.904.11 5.955.23 8.855.43l-.005-3.21c-1.836-.11-3.747-.23-5.583-.31-.01-5.2.02-9.92.012-15.12H48.34m11.522 0l.037 18.85a349 349 0 0 1 3.22.26c0-6.36.01-12.74 0-19.11h-3.26m6.06 0c1.3 3.18 2.5 6.36 3.82 9.74a684.16 684.16 0 0 1-4.16 9.57c1.14.12 2.32.28 3.46.41.81-2 1.56-3.54 2.38-5.6.81 2.19 1.55 3.89 2.37 6.15 1.13.15 2.61.36 3.74.52a576.97 576.97 0 0 0-4.26-10.99c1.38-3.26 2.79-6.38 4.22-9.79h-3.56c-.89 2.11-1.49 3.47-2.34 5.47a469.7 469.7 0 0 0-2.1-5.48h-3.57" fill="#FEFEFE" fill-rule="evenodd"/></svg>