<svg width="92" height="30" viewBox="0 0 92 30" xmlns="http://www.w3.org/2000/svg"><title>google</title><path d="M22.635 10.623h-10.82v3.163h7.7c-.376 4.434-4.09 6.325-7.596 6.325-4.49 0-8.4-3.5-8.4-8.41 0-4.78 3.73-8.47 8.41-8.47 3.6 0 5.73 2.29 5.73 2.29l2.23-2.29S17.03.05 11.81.05C5.17.05.03 5.62.03 11.635c0 5.895 4.836 11.644 11.955 11.644 6.26 0 10.844-4.26 10.844-10.56 0-1.33-.2-2.1-.2-2.1m9.16-2.29c-4.4 0-7.56 3.42-7.56 7.4 0 4.04 3.06 7.52 7.61 7.52 4.12 0 7.49-3.13 7.49-7.44 0-4.95-3.93-7.5-7.54-7.5zm.04 2.93c2.16 0 4.21 1.74 4.21 4.54 0 2.74-2.05 4.53-4.23 4.53-2.4 0-4.29-1.91-4.29-4.55 0-2.59 1.87-4.52 4.3-4.52zm16.3-2.94c-4.41 0-7.56 3.42-7.56 7.4 0 4.04 3.06 7.52 7.6 7.52 4.11 0 7.49-3.13 7.49-7.44 0-4.95-3.93-7.5-7.54-7.5zm.04 2.93c2.16 0 4.21 1.74 4.21 4.54 0 2.74-2.05 4.53-4.23 4.53-2.4 0-4.3-1.91-4.3-4.55 0-2.59 1.87-4.52 4.3-4.52zm16.08-2.92c-4.04 0-7.22 3.51-7.22 7.46 0 4.49 3.68 7.47 7.14 7.47 2.14 0 3.28-.85 4.12-1.82v1.47c0 2.57-1.58 4.12-3.96 4.12-2.3 0-3.45-1.7-3.85-2.66l-2.89 1.2c1.02 2.15 3.09 4.39 6.76 4.39 4.02 0 7.08-2.52 7.08-7.79V8.6H68.3v1.45c-.97-1.038-2.296-1.715-4.055-1.715zm.29 2.92c1.98 0 4.01 1.68 4.01 4.55 0 2.91-2.03 4.52-4.06 4.52-2.16 0-4.16-1.73-4.16-4.49 0-2.87 2.08-4.58 4.2-4.58zm20.64-2.94c-3.81 0-7.01 3.01-7.01 7.45 0 4.7 3.56 7.49 7.37 7.49 3.18 0 5.13-1.73 6.3-3.28l-2.6-1.72c-.68 1.04-1.8 2.05-3.68 2.05-2.12 0-3.09-1.15-3.69-2.27l10.08-4.15-.53-1.21c-.97-2.39-3.24-4.38-6.25-4.38zm.13 2.87c1.37 0 2.36.72 2.78 1.59l-6.73 2.79c-.29-2.17 1.77-4.39 3.95-4.39zM73.56 22.82h3.083v-22h-3.08z" fill="#FFF" fill-rule="evenodd"/></svg>